<svg xmlns="http://www.w3.org/2000/svg" xmlns:xlink="http://www.w3.org/1999/xlink" viewBox="0 0 453.31 269.24"><defs><style>.cls-1{fill:url(#linear-gradient);}.cls-2{fill:url(#linear-gradient-2);}.cls-3{fill:#fff;}</style><linearGradient id="linear-gradient" x1="383.16" y1="173.02" x2="453.31" y2="173.02" gradientUnits="userSpaceOnUse"><stop offset="0" stop-color="#b87931"/><stop offset="0.16" stop-color="#fde67c"/><stop offset="0.2" stop-color="#f2d570"/><stop offset="0.39" stop-color="#c38e3e"/><stop offset="0.47" stop-color="#b1722a"/><stop offset="0.53" stop-color="#b5782e"/><stop offset="0.6" stop-color="#bf8739"/><stop offset="0.68" stop-color="#d0a14c"/><stop offset="0.76" stop-color="#e8c566"/><stop offset="0.8" stop-color="#f6db75"/><stop offset="1" stop-color="#b5732c"/></linearGradient><linearGradient id="linear-gradient-2" x1="42.58" y1="123.55" x2="453.31" y2="123.55" xlink:href="#linear-gradient"/></defs><g id="Layer_2" data-name="Layer 2"><g id="Layer_1-2" data-name="Layer 1"><path class="cls-1" d="M437.94,230.47l-.95.25c-3-2.86-8.19-11-8.19-33V117.48a15.27,15.27,0,0,0-1.82-7.37,19.41,19.41,0,0,0-4.85-5.87,24.52,24.52,0,0,0-6.78-3.89,21.84,21.84,0,0,0-7.72-1.4H383.16V201.63H399.3V112.84h8.33a4.84,4.84,0,0,1,3.47,1.32,4.38,4.38,0,0,1,1.39,3.32v80.28s-2.87,28.53,23.3,33.88c-1.37,3.24-5.83,16.9,17.45,15.33C453.24,247,455.2,225.05,437.94,230.47Z"/><circle class="cls-2" cx="117.18" cy="68.5" r="9.1"/><path class="cls-2" d="M133.25,201.47H42.6c0-35.2-.1-98.07.4-116.41,0-69,78.9-95.8,85.59-81.2,1.71,3.73-2.42,13.7-2.31,17.82.15,6.26,7.1,5.1,6.95,11.37-.1,4.44-2.64,6.52-7.63,6.7l-.43,0c-.76,0-1.53.08-2.29.14A52.65,52.65,0,0,0,115.73,41c-.72.16-1.42.32-2.12.5a50.39,50.39,0,0,0-6.93,2.34c-.63.26-1.26.52-1.87.82a49.77,49.77,0,0,0-4.8,2.52c-.59.35-1.16.7-1.72,1.07a49.52,49.52,0,0,0-4.38,3.19c-.55.43-1.08.88-1.6,1.34q-1.64,1.45-3.15,3c-.49.51-1,1-1.44,1.57-.85,1-1.66,2-2.43,3-.44.57-.86,1.15-1.27,1.75-.67,1-1.31,2-1.91,3-.4.68-.78,1.38-1.16,2.1A52.19,52.19,0,0,0,75.86,82a61.58,61.58,0,0,0-.94,9V91c-.16,3.88-.1,7.79-.12,11.66-.11,19.58,0,39.18,0,58.76,0,6,2.19,8.14,8.17,8.16,3.62,0,7.27,0,10.9,0,4.83-.06,7.25-2.5,7.26-7.4q0-27.56,0-55.13c0-6,2.09-8.2,8-8.24,5.61,0,11.23,0,16.85,0,4.75.06,7.22,2.36,7.23,7.07C133.3,133.73,133.3,161.57,133.25,201.47Z"/><path class="cls-2" d="M151.37,100.52a20.69,20.69,0,0,0-6.68,4.22,19.84,19.84,0,0,0-4.43,6.28,19,19,0,0,0-1.65,7.94v82.67h16.14V165.75L168,155.17v46.46h16.14V99H159.62A22,22,0,0,0,151.37,100.52ZM168,137.14l-13.2,10.59V117.47a4.37,4.37,0,0,1,1.39-3.31,4.83,4.83,0,0,1,3.48-1.32H168Z"/><polygon class="cls-2" points="243.79 177.99 277.12 177.99 277.12 164.1 259.94 164.1 259.94 144.42 274.17 144.42 274.17 130.53 259.94 130.53 259.94 112.51 277.12 112.51 277.12 98.79 243.79 98.79 243.79 177.99"/><path class="cls-2" d="M236.85,117.3A15.33,15.33,0,0,0,235,110a19.45,19.45,0,0,0-4.86-5.87,24,24,0,0,0-6.77-3.89,21.9,21.9,0,0,0-7.73-1.4H191.2V201.47h16.14V112.68h8.33a4.87,4.87,0,0,1,3.48,1.32,4.38,4.38,0,0,1,1.38,3.3v84.17h56.59V187.58H236.85Z"/><path class="cls-2" d="M321.37,104.65a21.41,21.41,0,0,0-14.83-5.87h-3.48a22.09,22.09,0,0,0-8.25,1.57,21.45,21.45,0,0,0-6.76,4.3,20.53,20.53,0,0,0-4.52,6.37,18.59,18.59,0,0,0-1.64,7.78v5.62a40.34,40.34,0,0,0,.7,7.85c.09.54.2,1.06.33,1.57a32.38,32.38,0,0,0,2.79,7.36,28.45,28.45,0,0,0,4.16,5.87q2.43,2.64,5,5a39.77,39.77,0,0,0,4,3.31,47.44,47.44,0,0,1,4,3.13,29.34,29.34,0,0,1,6,6.62,16.49,16.49,0,0,1,2.43,8.15l-.07,8.62a4.35,4.35,0,0,1-1.24,3,5.19,5.19,0,0,1-3.63,1.26h-3.48a4.72,4.72,0,0,1-3.47-1.4,4.51,4.51,0,0,1-1.38-3.23V163.93H281.89v17.53a18.58,18.58,0,0,0,1.64,7.77,20.73,20.73,0,0,0,4.53,6.37,21.41,21.41,0,0,0,14.82,5.87h3.48a22.09,22.09,0,0,0,8.25-1.57,21.45,21.45,0,0,0,6.76-4.3,20.37,20.37,0,0,0,4.52-6.37,17.09,17.09,0,0,0,1.64-7.77v-6.12a34.72,34.72,0,0,0-1.47-10.93,45.47,45.47,0,0,0-4.34-8.91,42.42,42.42,0,0,0-6.6-7.19q-3.9-3.39-8.58-7a32,32,0,0,1-5.83-6.53,12.53,12.53,0,0,1-1.26-2.48,21.87,21.87,0,0,1-1.25-7.85V118.8a5.17,5.17,0,0,1,1.39-3.32,4.88,4.88,0,0,1,3.47-1.32h3.48a4.72,4.72,0,0,1,3.47,1.4,4.52,4.52,0,0,1,1.38,3.24V132h16.14V118.8a18.59,18.59,0,0,0-1.64-7.78A20.53,20.53,0,0,0,321.37,104.65Z"/><path class="cls-2" d="M371.71,104.57a21,21,0,0,0-6.69-4.22,22.15,22.15,0,0,0-8.24-1.56H332.3V201.47h16.14V155l13.2,10.58v35.89h16.14V118.8a18.82,18.82,0,0,0-1.65-7.94A20.14,20.14,0,0,0,371.71,104.57Zm-10.07,43L348.44,137v-24.3h8.34a4.78,4.78,0,0,1,3.47,1.32,4.35,4.35,0,0,1,1.39,3.3Z"/><path class="cls-2" d="M437.94,230.47l-.95.25c-3-2.86-8.19-11-8.19-33V117.48a15.27,15.27,0,0,0-1.82-7.37,19.41,19.41,0,0,0-4.85-5.87,24.52,24.52,0,0,0-6.78-3.89,21.84,21.84,0,0,0-7.72-1.4H383.16V201.63H399.3V112.84h8.33a4.84,4.84,0,0,1,3.47,1.32,4.38,4.38,0,0,1,1.39,3.32v80.28s-2.87,28.53,23.3,33.88c-1.37,3.24-5.83,16.9,17.45,15.33C453.24,247,455.2,225.05,437.94,230.47Z"/><path class="cls-3" d="M116.47,251.77c-1.1,0-1.61-.59-2.42-1.78L98.47,223.46c-.36-.6-.43-.78-.8-.78s-.37.18-.37.66V247c0,1.73,3.15,3.39,3.15,4.17,0,.41-.29.59-.81.59H88c-.52,0-.81-.18-.81-.59,0-.78,3.15-2.44,3.15-4.17V211.62c0-1.73-3.15-3.39-3.15-4.16,0-.42.29-.6.81-.6h8.33c1.1,0,1.76.6,2.42,1.78l16,28.74c.15.23.3.47.52.47s.22-.36.22-.36V211.62c0-1.73-3.15-3.39-3.15-4.16,0-.42.29-.6.81-.6H124.8c.52,0,.81.18.81.6,0,.77-3.15,2.43-3.15,4.16v39c0,.6-.29,1.19-1.39,1.19Z"/><path class="cls-3" d="M149.67,207.46c2.12,0,5.27-.6,6.22-.6.51,0,.73.24.73.65V215c0,.42-.22.65-.73.65s-.95-.53-2.78-2.26c-1.17-1.13-3-1.25-6-1.25a1.13,1.13,0,0,0-1.24,1V247c0,1.73,3.14,3.39,3.14,4.17,0,.41-.29.59-.8.59h-12c-.51,0-.8-.18-.8-.59,0-.78,3.15-2.44,3.15-4.17V213.17a1.14,1.14,0,0,0-1.25-1c-3,0-4.83.12-6,1.25-1.82,1.73-2.26,2.26-2.77,2.26s-.74-.23-.74-.65v-7.5c0-.41.22-.65.74-.65,1,0,4.09.6,6.21.6Z"/><path class="cls-3" d="M180.54,212.81a1.21,1.21,0,0,0-1.25-1.19h-8.63c-.66,0-1,.3-1,.95v18l9.29-4.58a4.46,4.46,0,0,1,1.53-.59.68.68,0,0,1,.66.77v4.76c0,.72-.51,1-1.53,1.55l-10,4.88v8.74c0,.59.44.95,1.1.95h8.41a1.33,1.33,0,0,0,1.39-1.25v-3.92c0-1,.22-1.43.73-1.73,0,0,4.9-2.56,5.63-2.56s.95.3.95.84V250.1c0,1.08-.66,1.67-2.19,1.67H160c-.52,0-.81-.18-.81-.59,0-.78,3.15-2.44,3.15-4.17V211.62c0-1.73-3.15-3.39-3.15-4.16,0-.42.29-.6.81-.6h25.59c1.61,0,2.27.6,2.27,1.43V215c0,1-.22,1.43-.73,1.72,0,0-4.9,2.86-5.63,2.86s-1-.3-1-.83Z"/><path class="cls-3" d="M191.51,251.18c0-.78,3.14-2.44,3.14-4.17V211.62c0-1.73-3.14-3.39-3.14-4.16,0-.42.29-.6.8-.6h22.46c4.38,0,6.72,1.49,6.72,4.94v14.57c0,1.37-.8,2.2-2,3l-4.83,2.73c2.7,6.66,6.22,14.75,7,15.71,1.68,2.08,3.36,2.61,3.36,3.39,0,.41-.29.59-.8.59H212.42c-.51,0-.8-.18-.8-.59,0-.78,1.61-1.13,1.61-2.15a7.2,7.2,0,0,0-.37-1.19c-1-2.67-3.21-7.73-5.34-12.31l-4.68,2.5a1.61,1.61,0,0,0-.87,1.55V247c0,1.73,3.14,3.39,3.14,4.17,0,.41-.29.59-.8.59h-12C191.8,251.77,191.51,251.59,191.51,251.18ZM202,212.81V231c0,.42.22.66.51.66a3.1,3.1,0,0,0,1-.36l8.41-4.46c1.61-.95,2.27-1.67,2.27-2.68V213.46c0-1.36-.59-1.84-2.27-1.84h-8.7A1.2,1.2,0,0,0,202,212.81Z"/><path class="cls-3" d="M227.49,251.18c0-.78,3.15-2.44,3.15-4.17V211.62c0-1.73-3.15-3.39-3.15-4.16,0-.42.29-.6.81-.6H250c4.39,0,6.73,1.49,6.73,4.94v15.76c0,1.37-1.32,2.5-2.56,3.27l-15.36,8.39a1.6,1.6,0,0,0-.88,1.55V247c0,1.73,3.15,3.39,3.15,4.17,0,.41-.3.59-.81.59h-12C227.78,251.77,227.49,251.59,227.49,251.18ZM238,212.81V232.2a.54.54,0,0,0,.51.6,2.63,2.63,0,0,0,1.25-.48l7.46-4c1.6-1,2.26-1.66,2.26-2.67V213.46c0-1.36-.58-1.84-2.26-1.84h-8A1.2,1.2,0,0,0,238,212.81Z"/><path class="cls-3" d="M259.67,251.18c0-.78,3.15-2.44,3.15-4.17V211.62c0-1.73-3.15-3.39-3.15-4.16,0-.42.29-.6.81-.6h22.45c4.39,0,6.73,1.49,6.73,4.94v14.57c0,1.37-.81,2.2-2.05,3l-4.83,2.73c2.71,6.66,6.22,14.75,7,15.71,1.69,2.08,3.37,2.61,3.37,3.39,0,.41-.29.59-.81.59H280.59c-.51,0-.81-.18-.81-.59,0-.78,1.61-1.13,1.61-2.15a6.74,6.74,0,0,0-.36-1.19c-.95-2.67-3.22-7.73-5.34-12.31L271,238a1.6,1.6,0,0,0-.88,1.55V247c0,1.73,3.15,3.39,3.15,4.17,0,.41-.3.59-.81.59h-12C260,251.77,259.67,251.59,259.67,251.18Zm10.46-38.37V231c0,.42.22.66.51.66a3.09,3.09,0,0,0,1-.36l8.41-4.46c1.61-.95,2.26-1.67,2.26-2.68V213.46c0-1.36-.58-1.84-2.26-1.84h-8.71A1.2,1.2,0,0,0,270.13,212.81Z"/><path class="cls-3" d="M306.48,247c0,1.73,3.14,3.39,3.14,4.17,0,.41-.29.59-.8.59h-12c-.52,0-.81-.18-.81-.59,0-.78,3.15-2.44,3.15-4.17V211.62c0-1.73-3.15-3.39-3.15-4.16,0-.42.29-.6.81-.6h12c.51,0,.8.18.8.6,0,.77-3.14,2.43-3.14,4.16Z"/><path class="cls-3" d="M321,220.3c0,1.13.37,2,1.9,2.92l12.22,7.14c2.26,1.31,3.21,2.32,3.21,4.52V248c0,2.44-2.26,3.81-5.7,3.81H319.64c-3.8,0-6-2.2-6-4.1V236.31c0-.54.29-.84,1-.84s5.63,2.86,5.63,2.86c.51.29.73.71.73,1.72v5.71a1.33,1.33,0,0,0,1.39,1.25h7.09c1.1,0,1.54-.41,1.54-1.31v-8.44a3.07,3.07,0,0,0-1.83-2.74l-12.07-7.08c-2.12-1.25-3.43-2.26-3.43-4.46V210.67c0-2.44,2.26-3.81,5.7-3.81H332.3c3.8,0,6,2.2,6,4.1v9.58c0,.54-.29.83-1,.83s-5.63-2.85-5.63-2.85c-.51-.3-.73-.71-.73-1.73v-3.92a1.25,1.25,0,0,0-1.39-1.25H322.5c-1.1,0-1.54.42-1.54,1.31Z"/><path class="cls-3" d="M363.31,212.81a1.21,1.21,0,0,0-1.25-1.19h-8.63c-.65,0-1,.3-1,.95v18L361.7,226a4.46,4.46,0,0,1,1.53-.59.68.68,0,0,1,.66.77v4.76c0,.72-.51,1-1.53,1.55l-9.95,4.88v8.74c0,.59.44.95,1.1.95h8.41a1.33,1.33,0,0,0,1.39-1.25v-3.92c0-1,.22-1.43.73-1.73,0,0,4.9-2.56,5.63-2.56s.95.3.95.84V250.1c0,1.08-.66,1.67-2.19,1.67H342.76c-.52,0-.81-.18-.81-.59,0-.78,3.15-2.44,3.15-4.17V211.62c0-1.73-3.15-3.39-3.15-4.16,0-.42.29-.6.81-.6h25.59c1.61,0,2.27.6,2.27,1.43V215c0,1-.22,1.43-.73,1.72,0,0-4.9,2.86-5.63,2.86s-.95-.3-.95-.83Z"/><path class="cls-3" d="M382.32,220.3c0,1.13.37,2,1.9,2.92l12.22,7.14c2.27,1.31,3.22,2.32,3.22,4.52V248c0,2.44-2.27,3.81-5.71,3.81H381c-3.81,0-6-2.2-6-4.1V236.31c0-.54.29-.84.95-.84s5.63,2.86,5.63,2.86c.51.29.73.71.73,1.72v5.71a1.33,1.33,0,0,0,1.39,1.25h7.1c1.09,0,1.53-.41,1.53-1.31v-8.44a3.07,3.07,0,0,0-1.83-2.74l-12.06-7.08c-2.12-1.25-3.44-2.26-3.44-4.46V210.67c0-2.44,2.27-3.81,5.7-3.81h13c3.8,0,6,2.2,6,4.1v9.58c0,.54-.3.83-1,.83s-5.64-2.85-5.64-2.85c-.51-.3-.73-.71-.73-1.73v-3.92a1.25,1.25,0,0,0-1.39-1.25h-7.09c-1.1,0-1.54.42-1.54,1.31Z"/><path class="cls-3" d="M76.24,218.75v-5.94A1.2,1.2,0,0,0,75,211.62H66.37c-.66,0-1,.29-1,.95v18L74.63,226a4.29,4.29,0,0,1,1.54-.6c.44,0,.66.36.66.78v4.75c0,.71-.52,1-1.54,1.55l-9.94,4.88v8.74c0,.6.44.95,1.09.95h8.41a1.33,1.33,0,0,0,1.39-1.25v-3.92c0-1,.22-1.43.73-1.73,0,0,4.91-2.55,5.63-2.55s1,.29,1,.83v11.72c0,1.06-.66,1.66-2.19,1.66H71.9a106.24,106.24,0,0,1-16.6-1.24C-2.68,241.22,0,183.25,0,183.25c8.46,23.47,42.56,23.61,42.56,23.61H81.29c1.6,0,2.26.59,2.26,1.43V215c0,1-.22,1.43-.73,1.72,0,0-4.89,2.86-5.63,2.86S76.24,219.29,76.24,218.75Z"/><path class="cls-3" d="M265,255.62a4.71,4.71,0,0,1,2.49.64,4.33,4.33,0,0,1,1.66,1.85,6.65,6.65,0,0,1,.59,2.93,6.75,6.75,0,0,1-.6,2.93,4.77,4.77,0,0,1-1.69,2,4.41,4.41,0,0,1-2.47.7,4.76,4.76,0,0,1-2.49-.64,4.37,4.37,0,0,1-1.66-1.86,7.43,7.43,0,0,1,0-5.85,4.84,4.84,0,0,1,1.69-2A4.43,4.43,0,0,1,265,255.62Zm5.64,11.15.22.09a4.5,4.5,0,0,1-.41,1,2.47,2.47,0,0,1-.53.68,2.91,2.91,0,0,1-.77.47,3.16,3.16,0,0,1-1.25.21,4.4,4.4,0,0,1-1.53-.27,14.72,14.72,0,0,1-1.54-.63,15.2,15.2,0,0,0-1.75-.69l-.19-.06-.17,0a4.92,4.92,0,0,1-.61.16,3.52,3.52,0,0,1-.63.06,1.64,1.64,0,0,1-.49-.07c-.13-.05-.2-.13-.2-.23s.27-.31.81-.31a5.63,5.63,0,0,1,1.12.12,6.14,6.14,0,0,0,.93-.34l.8-.35a3.45,3.45,0,0,1,1-.21v.24a2.81,2.81,0,0,0-.78.17c-.22.08-.43.18-.65.28a6.26,6.26,0,0,1-.78.28l1.63.32c.59.11,1.16.2,1.7.28a10,10,0,0,0,1.41.12,3.94,3.94,0,0,0,1.7-.31A2.13,2.13,0,0,0,270.62,266.77Zm-5.7-10.88a2.38,2.38,0,0,0-1.69.67,4.47,4.47,0,0,0-1.12,1.86,8.75,8.75,0,0,0-.39,2.74,7.76,7.76,0,0,0,.44,2.76,4.31,4.31,0,0,0,1.19,1.81,2.56,2.56,0,0,0,1.67.63,2.36,2.36,0,0,0,1.69-.67,4.47,4.47,0,0,0,1.12-1.86,8.81,8.81,0,0,0,.4-2.73,7.7,7.7,0,0,0-.45-2.77,4.21,4.21,0,0,0-1.19-1.8A2.46,2.46,0,0,0,264.92,255.89Z"/><path class="cls-3" d="M277.74,258.55v6.26a1.57,1.57,0,0,0,.25,1,1,1,0,0,0,.89.32v.32c-.31,0-.62-.05-.93-.05a7.4,7.4,0,0,0-.83.05,3,3,0,0,0-.72.16v-1.76a2.65,2.65,0,0,1-1.06,1.38,2.61,2.61,0,0,1-1.4.41,2.52,2.52,0,0,1-.91-.15,1.7,1.7,0,0,1-.64-.42,1.57,1.57,0,0,1-.39-.77,5.67,5.67,0,0,1-.11-1.19v-3.75a1.69,1.69,0,0,0-.24-1,1.08,1.08,0,0,0-.9-.32v-.31c.32,0,.63,0,.93,0a7.26,7.26,0,0,0,.83-.05,3.74,3.74,0,0,0,.73-.16v5.88a5.71,5.71,0,0,0,.06.86,1,1,0,0,0,.3.62,1.07,1.07,0,0,0,.78.24,1.66,1.66,0,0,0,1-.36,2.32,2.32,0,0,0,.71-1,3.38,3.38,0,0,0,.27-1.37v-3.1a1.69,1.69,0,0,0-.24-1,1.08,1.08,0,0,0-.9-.32v-.31c.32,0,.63,0,.93,0a7.4,7.4,0,0,0,.83-.05A3.8,3.8,0,0,0,277.74,258.55Z"/><path class="cls-3" d="M281.77,266.53a2.38,2.38,0,0,1-1.07-.23,1.77,1.77,0,0,1-.68-.65,2.06,2.06,0,0,1-.23-1,1.7,1.7,0,0,1,.31-1.07,2.24,2.24,0,0,1,.78-.68,6,6,0,0,1,1-.42l1-.33a3.43,3.43,0,0,0,.79-.37.65.65,0,0,0,.31-.55v-.93a2,2,0,0,0-.19-1,.89.89,0,0,0-.5-.44,2,2,0,0,0-.71-.11,3.43,3.43,0,0,0-.8.1,1.21,1.21,0,0,0-.68.44.9.9,0,0,1,.5.3.89.89,0,0,1,.21.61.75.75,0,0,1-.24.59.92.92,0,0,1-.62.22.74.74,0,0,1-.63-.28,1,1,0,0,1-.2-.62,1,1,0,0,1,.19-.63,2.38,2.38,0,0,1,.49-.45,3.21,3.21,0,0,1,.89-.41,4.32,4.32,0,0,1,1.24-.17,3.56,3.56,0,0,1,1.05.14,1.77,1.77,0,0,1,.71.41,1.67,1.67,0,0,1,.51.88,5.44,5.44,0,0,1,.12,1.23v4.16a.94.94,0,0,0,.12.54.38.38,0,0,0,.35.16.67.67,0,0,0,.31-.07,2.23,2.23,0,0,0,.36-.24l.17.25a4.46,4.46,0,0,1-.6.4,1.87,1.87,0,0,1-1.49,0,1,1,0,0,1-.42-.44,1.63,1.63,0,0,1-.14-.74,2.74,2.74,0,0,1-1,1A2.42,2.42,0,0,1,281.77,266.53Zm.54-.6a1.71,1.71,0,0,0,.92-.28,2.73,2.73,0,0,0,.77-.86v-2.93a1.45,1.45,0,0,1-.53.43l-.74.34a5.74,5.74,0,0,0-.78.4,2.05,2.05,0,0,0-.6.61,1.76,1.76,0,0,0-.24,1,1.41,1.41,0,0,0,.32,1A1.13,1.13,0,0,0,282.31,265.93Z"/><path class="cls-3" d="M289.47,254.69V265a1.09,1.09,0,0,0,.26.85,1.36,1.36,0,0,0,.88.23v.31l-.77,0c-.34,0-.69,0-1,0l-1,0-.78,0v-.31a1.31,1.31,0,0,0,.87-.23,1.05,1.05,0,0,0,.27-.85v-8.54a1.69,1.69,0,0,0-.24-1,1.08,1.08,0,0,0-.9-.32v-.31c.32,0,.63,0,.93,0a7.4,7.4,0,0,0,.83-.05A3.8,3.8,0,0,0,289.47,254.69Z"/><path class="cls-3" d="M293.86,258.55V265a1.05,1.05,0,0,0,.26.85,1.31,1.31,0,0,0,.87.23v.31l-.77,0c-.34,0-.69,0-1,0l-1,0-.78,0v-.31a1.36,1.36,0,0,0,.88-.23,1.09,1.09,0,0,0,.26-.85v-4.68a1.69,1.69,0,0,0-.24-1,1.08,1.08,0,0,0-.9-.32v-.31c.32,0,.63,0,.93,0a7.26,7.26,0,0,0,.83-.05A3.74,3.74,0,0,0,293.86,258.55Zm-.78-3.57a.91.91,0,0,1,.67.28.93.93,0,0,1,0,1.35.91.91,0,0,1-.67.28.89.89,0,0,1-.67-.28.93.93,0,0,1,0-1.35A.89.89,0,0,1,293.08,255Z"/><path class="cls-3" d="M298.17,256.23v2.5h2.21v.3h-2.21v5.79a1.49,1.49,0,0,0,.25,1,.88.88,0,0,0,.7.28,1,1,0,0,0,.78-.36,3.19,3.19,0,0,0,.57-1.24l.3.08a3.38,3.38,0,0,1-.59,1.46,1.59,1.59,0,0,1-1.36.6,2.43,2.43,0,0,1-.83-.12,1.9,1.9,0,0,1-.59-.37,1.79,1.79,0,0,1-.45-.82,4.94,4.94,0,0,1-.13-1.28v-5h-1.44v-.3h1.44v-2.29q.38,0,.72-.06A2.91,2.91,0,0,0,298.17,256.23Z"/><path class="cls-3" d="M308,258.72v.3a.88.88,0,0,0-.52.25,2.16,2.16,0,0,0-.45.79l-2.46,6.44h-.25l-2.75-6.63a1.45,1.45,0,0,0-.56-.71,1.12,1.12,0,0,0-.46-.13v-.31q.33,0,.69.06t.78,0l1,0,1-.06V259a4.23,4.23,0,0,0-.66.05.43.43,0,0,0-.37.32,1.6,1.6,0,0,0,.18.89l1.84,4.56-.09,0,1.7-4.46a1.63,1.63,0,0,0,.16-.78.56.56,0,0,0-.3-.44,1.94,1.94,0,0,0-.81-.18v-.3l.46,0h1.41Zm-3.43,7.78-.5,1.3a4.63,4.63,0,0,1-.31.63,2.14,2.14,0,0,1-.34.42,1.21,1.21,0,0,1-.57.3,2.29,2.29,0,0,1-.59.09,1.24,1.24,0,0,1-.52-.11.81.81,0,0,1-.37-.31.82.82,0,0,1-.13-.48.81.81,0,0,1,.21-.58.78.78,0,0,1,.58-.21.84.84,0,0,1,.54.18.62.62,0,0,1,.22.52.7.7,0,0,1-.12.42.83.83,0,0,1-.28.25l.05,0h0a1,1,0,0,0,.72-.28,2.23,2.23,0,0,0,.55-.89l.54-1.39Z"/><path class="cls-3" d="M314.15,256.23v2.5h2.21v.3h-2.21v5.79a1.49,1.49,0,0,0,.25,1,.88.88,0,0,0,.7.28,1,1,0,0,0,.78-.36,3.19,3.19,0,0,0,.57-1.24l.3.08a3.38,3.38,0,0,1-.59,1.46,1.59,1.59,0,0,1-1.36.6,2.47,2.47,0,0,1-.83-.12,1.9,1.9,0,0,1-.59-.37,1.79,1.79,0,0,1-.45-.82,4.94,4.94,0,0,1-.13-1.28v-5h-1.44v-.3h1.44v-2.29q.38,0,.72-.06A2.91,2.91,0,0,0,314.15,256.23Z"/><path class="cls-3" d="M319.38,254.71v5.59a2.58,2.58,0,0,1,1.09-1.4,2.93,2.93,0,0,1,1.46-.39,2.63,2.63,0,0,1,.95.15,1.7,1.7,0,0,1,1,1.16A4.94,4.94,0,0,1,324,261v4a1.05,1.05,0,0,0,.26.85,1.33,1.33,0,0,0,.87.23v.31l-.77,0-1,0c-.33,0-.65,0-1,0l-.71,0v-.31a1.07,1.07,0,0,0,.77-.23,1.24,1.24,0,0,0,.22-.85v-4.32a4.39,4.39,0,0,0-.08-.85,1.13,1.13,0,0,0-.33-.63,1.16,1.16,0,0,0-.8-.24,1.81,1.81,0,0,0-1.09.34,2.34,2.34,0,0,0-.74,1,3.48,3.48,0,0,0-.27,1.41V265a1.18,1.18,0,0,0,.23.85,1,1,0,0,0,.76.23v.31l-.71,0c-.31,0-.64,0-1,0l-1,0-.78,0v-.31a1.31,1.31,0,0,0,.87-.23A1.05,1.05,0,0,0,318,265V256.5a1.64,1.64,0,0,0-.24-1,1,1,0,0,0-.9-.32v-.32c.32,0,.63,0,.93,0a5.59,5.59,0,0,0,.83-.06A3.82,3.82,0,0,0,319.38,254.71Z"/><path class="cls-3" d="M328,266.53a2.38,2.38,0,0,1-1.07-.23,1.77,1.77,0,0,1-.68-.65,2.06,2.06,0,0,1-.23-1,1.7,1.7,0,0,1,.31-1.07,2.24,2.24,0,0,1,.78-.68,6,6,0,0,1,1-.42l1-.33a3.43,3.43,0,0,0,.79-.37.65.65,0,0,0,.31-.55v-.93a2,2,0,0,0-.19-1,.92.92,0,0,0-.5-.44,2,2,0,0,0-.71-.11,3.43,3.43,0,0,0-.8.1,1.21,1.21,0,0,0-.68.44.9.9,0,0,1,.5.3.89.89,0,0,1,.21.61.75.75,0,0,1-.24.59.92.92,0,0,1-.62.22.73.73,0,0,1-.63-.28,1,1,0,0,1-.2-.62,1,1,0,0,1,.19-.63,2.38,2.38,0,0,1,.49-.45,3.21,3.21,0,0,1,.89-.41,4.32,4.32,0,0,1,1.24-.17,3.56,3.56,0,0,1,1.05.14,1.77,1.77,0,0,1,.71.41,1.67,1.67,0,0,1,.51.88,5.44,5.44,0,0,1,.12,1.23v4.16a.94.94,0,0,0,.12.54.38.38,0,0,0,.35.16.67.67,0,0,0,.31-.07,2.23,2.23,0,0,0,.36-.24l.16.25a3.85,3.85,0,0,1-.59.4,1.87,1.87,0,0,1-1.49,0,.94.94,0,0,1-.42-.44,1.63,1.63,0,0,1-.14-.74,2.74,2.74,0,0,1-1,1A2.42,2.42,0,0,1,328,266.53Zm.54-.6a1.74,1.74,0,0,0,.92-.28,2.73,2.73,0,0,0,.77-.86v-2.93a1.45,1.45,0,0,1-.53.43c-.23.11-.48.23-.75.34a6.26,6.26,0,0,0-.77.4,2.05,2.05,0,0,0-.6.61,1.76,1.76,0,0,0-.24,1,1.41,1.41,0,0,0,.32,1A1.12,1.12,0,0,0,328.5,265.93Z"/><path class="cls-3" d="M335.69,256.23v2.5h2.22v.3h-2.22v5.79a1.49,1.49,0,0,0,.26,1,.88.88,0,0,0,.7.28,1,1,0,0,0,.78-.36,3.19,3.19,0,0,0,.57-1.24l.3.08a3.27,3.27,0,0,1-.6,1.46,1.56,1.56,0,0,1-1.35.6,2.49,2.49,0,0,1-.84-.12,1.85,1.85,0,0,1-.58-.37,1.9,1.9,0,0,1-.46-.82,5.49,5.49,0,0,1-.12-1.28v-5h-1.44v-.3h1.44v-2.29c.24,0,.48,0,.71-.06A2.91,2.91,0,0,0,335.69,256.23Z"/><path class="cls-3" d="M347,258.51a2.52,2.52,0,0,1,.91.15,1.74,1.74,0,0,1,.65.42,1.68,1.68,0,0,1,.38.78A5.5,5.5,0,0,1,349,261v4a1.09,1.09,0,0,0,.26.85,1.36,1.36,0,0,0,.88.23v.31l-.78,0-1,0q-.5,0-1,0l-.72,0v-.31a1.07,1.07,0,0,0,.77-.23,1.19,1.19,0,0,0,.22-.85v-4.32a5.48,5.48,0,0,0-.06-.85,1.1,1.1,0,0,0-.3-.63,1.06,1.06,0,0,0-.77-.24,1.62,1.62,0,0,0-1,.36,2.28,2.28,0,0,0-.72,1,3.4,3.4,0,0,0-.26,1.38V265a1.19,1.19,0,0,0,.22.85,1,1,0,0,0,.76.23v.31l-.71,0q-.46,0-1,0l-1,0-.78,0v-.31a1.36,1.36,0,0,0,.88-.23,1.09,1.09,0,0,0,.26-.85v-4.68a1.69,1.69,0,0,0-.24-1,1.08,1.08,0,0,0-.9-.32v-.31c.32,0,.63,0,.93,0a7.26,7.26,0,0,0,.83-.05,3.91,3.91,0,0,0,.73-.16v1.77a2.71,2.71,0,0,1,1.06-1.39A2.59,2.59,0,0,1,347,258.51Zm4.5,0a2.57,2.57,0,0,1,.92.15,1.7,1.7,0,0,1,.64.42,1.6,1.6,0,0,1,.39.78,5.58,5.58,0,0,1,.1,1.18v4a1.05,1.05,0,0,0,.27.85,1.31,1.31,0,0,0,.87.23v.31l-.78,0-1,0c-.32,0-.65,0-1,0l-.71,0v-.31a1,1,0,0,0,.76-.23,1.18,1.18,0,0,0,.23-.85v-4.32a5.48,5.48,0,0,0-.06-.85,1.1,1.1,0,0,0-.3-.63,1.07,1.07,0,0,0-.78-.24,1.62,1.62,0,0,0-1,.36,2.49,2.49,0,0,0-.72,1,3.57,3.57,0,0,0-.26,1.38l-.05-1.4a2.59,2.59,0,0,1,1.1-1.41A2.89,2.89,0,0,1,351.49,258.51Z"/><path class="cls-3" d="M357.46,266.53a2.33,2.33,0,0,1-1.06-.23,1.64,1.64,0,0,1-.68-.65,2,2,0,0,1-.23-1,1.76,1.76,0,0,1,.3-1.07,2.36,2.36,0,0,1,.79-.68,6,6,0,0,1,1-.42l1-.33a3.43,3.43,0,0,0,.79-.37.64.64,0,0,0,.3-.55v-.93a2,2,0,0,0-.18-1,.94.94,0,0,0-.51-.44,1.94,1.94,0,0,0-.7-.11,3.3,3.3,0,0,0-.8.1,1.21,1.21,0,0,0-.68.44.9.9,0,0,1,.7.91.75.75,0,0,1-.24.59.89.89,0,0,1-.61.22.76.76,0,0,1-.64-.28,1,1,0,0,1-.2-.62,1,1,0,0,1,.2-.63,2.38,2.38,0,0,1,.49-.45,3.21,3.21,0,0,1,.89-.41,4.25,4.25,0,0,1,1.23-.17,3.56,3.56,0,0,1,1.05.14,1.81,1.81,0,0,1,.72.41,1.67,1.67,0,0,1,.51.88,5.44,5.44,0,0,1,.12,1.23v4.16a1,1,0,0,0,.11.54.39.39,0,0,0,.35.16.71.71,0,0,0,.32-.07,2.23,2.23,0,0,0,.36-.24l.16.25a4.46,4.46,0,0,1-.6.4,1.51,1.51,0,0,1-.76.16,1.54,1.54,0,0,1-.72-.15,1,1,0,0,1-.43-.44,1.78,1.78,0,0,1-.14-.74,2.8,2.8,0,0,1-1,1A2.48,2.48,0,0,1,357.46,266.53Zm.54-.6a1.69,1.69,0,0,0,.92-.28,2.61,2.61,0,0,0,.77-.86v-2.93a1.41,1.41,0,0,1-.52.43c-.23.11-.48.23-.75.34a5.1,5.1,0,0,0-.77.4,2,2,0,0,0-.61.61,1.76,1.76,0,0,0-.24,1,1.37,1.37,0,0,0,.33,1A1.1,1.1,0,0,0,358,265.93Z"/><path class="cls-3" d="M365.2,256.23v2.5h2.21v.3H365.2v5.79a1.49,1.49,0,0,0,.25,1,.91.91,0,0,0,.71.28,1,1,0,0,0,.78-.36,3.36,3.36,0,0,0,.56-1.24l.3.08a3.26,3.26,0,0,1-.59,1.46,1.56,1.56,0,0,1-1.35.6,2.49,2.49,0,0,1-.84-.12,1.75,1.75,0,0,1-.58-.37,1.8,1.8,0,0,1-.46-.82,5.42,5.42,0,0,1-.13-1.28v-5h-1.43v-.3h1.43v-2.29q.38,0,.72-.06A2.91,2.91,0,0,0,365.2,256.23Z"/><path class="cls-3" d="M369.9,256.23v2.5h2.21v.3H369.9v5.79a1.49,1.49,0,0,0,.25,1,.9.9,0,0,0,.7.28,1,1,0,0,0,.78-.36,3.19,3.19,0,0,0,.57-1.24l.3.08a3.38,3.38,0,0,1-.59,1.46,1.57,1.57,0,0,1-1.35.6,2.49,2.49,0,0,1-.84-.12,1.9,1.9,0,0,1-.59-.37,1.79,1.79,0,0,1-.45-.82,4.94,4.94,0,0,1-.13-1.28v-5h-1.44v-.3h1.44v-2.29q.38,0,.72-.06A2.91,2.91,0,0,0,369.9,256.23Z"/><path class="cls-3" d="M377.44,258.51a1.49,1.49,0,0,1,.71.16,1.33,1.33,0,0,1,.48.43,1.07,1.07,0,0,1,.17.59,1,1,0,0,1-.23.66.76.76,0,0,1-.62.28.82.82,0,0,1-.56-.2.7.7,0,0,1-.24-.57.8.8,0,0,1,.16-.49,1.17,1.17,0,0,1,.35-.32.35.35,0,0,0-.31-.15,1.49,1.49,0,0,0-.86.27,2.6,2.6,0,0,0-.65.71,3.9,3.9,0,0,0-.42.93,3,3,0,0,0-.15.9v3.17a1,1,0,0,0,.42,1,2.27,2.27,0,0,0,1.16.25v.31l-1,0c-.42,0-.86,0-1.33,0s-.68,0-1,0l-.76,0v-.31a1.36,1.36,0,0,0,.88-.23,1.09,1.09,0,0,0,.26-.85v-4.68a1.69,1.69,0,0,0-.24-1,1.08,1.08,0,0,0-.9-.32v-.31c.32,0,.63,0,.93,0a7.26,7.26,0,0,0,.83-.05,3.74,3.74,0,0,0,.73-.16v1.87a3.72,3.72,0,0,1,.47-.87,2.74,2.74,0,0,1,.74-.74A1.65,1.65,0,0,1,377.44,258.51Z"/><path class="cls-3" d="M382.78,258.51a2.69,2.69,0,0,1,2.06.8,3.58,3.58,0,0,1,.74,2.49H380.3l0-.28h3.86a5,5,0,0,0-.12-1.36,2.4,2.4,0,0,0-.47-1,1,1,0,0,0-.83-.38,1.52,1.52,0,0,0-1.22.69,4.13,4.13,0,0,0-.64,2.19l.05.06c0,.14,0,.31-.05.49s0,.36,0,.54a4.24,4.24,0,0,0,.33,1.75,2.59,2.59,0,0,0,.86,1.11,1.81,1.81,0,0,0,1.1.38,2.41,2.41,0,0,0,.85-.14,2,2,0,0,0,.75-.47,2.83,2.83,0,0,0,.6-.88l.3.12a3.09,3.09,0,0,1-.54,1,2.89,2.89,0,0,1-.94.75,2.79,2.79,0,0,1-1.32.29,3.36,3.36,0,0,1-1.85-.49,3.22,3.22,0,0,1-1.18-1.37,4.57,4.57,0,0,1-.41-2,5.58,5.58,0,0,1,.42-2.27A3.4,3.4,0,0,1,381,259,3.13,3.13,0,0,1,382.78,258.51Z"/><path class="cls-3" d="M389.39,258.51a2.41,2.41,0,0,1,1,.19,2.78,2.78,0,0,1,.61.36q.5.4.6-.54H392c0,.28,0,.61-.05,1s0,.9,0,1.55h-.35a5.1,5.1,0,0,0-.3-1.08,2.14,2.14,0,0,0-.64-.86,1.71,1.71,0,0,0-1.09-.34,1.37,1.37,0,0,0-.88.29,1.09,1.09,0,0,0-.35.87,1.19,1.19,0,0,0,.27.77,3,3,0,0,0,.7.59l1,.61a10.92,10.92,0,0,1,1,.73,3.38,3.38,0,0,1,.74.83,2,2,0,0,1,.28,1.06,1.82,1.82,0,0,1-.36,1.15,2.22,2.22,0,0,1-.94.7,3.22,3.22,0,0,1-1.26.24,3.05,3.05,0,0,1-.62-.05,2.67,2.67,0,0,1-.57-.16l-.3-.18-.31-.22a.17.17,0,0,0-.27,0,1,1,0,0,0-.18.5h-.34c0-.32,0-.71,0-1.17s0-1.07,0-1.82h.34a8.71,8.71,0,0,0,.3,1.46,2,2,0,0,0,.62,1,1.69,1.69,0,0,0,1.16.35,1.52,1.52,0,0,0,.61-.13,1.3,1.3,0,0,0,.52-.45,1.58,1.58,0,0,0,.2-.84,1.39,1.39,0,0,0-.47-1.08,11.2,11.2,0,0,0-1.22-.88c-.36-.23-.69-.46-1-.69a3.08,3.08,0,0,1-.76-.77,2.11,2.11,0,0,1,0-2.15,1.77,1.77,0,0,1,.82-.63A3,3,0,0,1,389.39,258.51Z"/><path class="cls-3" d="M396.08,258.51a2.41,2.41,0,0,1,1,.19,2.78,2.78,0,0,1,.61.36q.5.4.6-.54h.34c0,.28,0,.61,0,1s0,.9,0,1.55h-.35a4.59,4.59,0,0,0-.31-1.08,2,2,0,0,0-.63-.86,1.71,1.71,0,0,0-1.09-.34,1.35,1.35,0,0,0-.88.29,1.09,1.09,0,0,0-.35.87,1.19,1.19,0,0,0,.27.77,3,3,0,0,0,.7.59l.94.61a11.12,11.12,0,0,1,1,.73,3.38,3.38,0,0,1,.74.83,2,2,0,0,1,.27,1.06,1.87,1.87,0,0,1-.35,1.15,2.28,2.28,0,0,1-.94.7,3.25,3.25,0,0,1-1.26.24,3.22,3.22,0,0,1-.63-.05,2.75,2.75,0,0,1-.56-.16l-.3-.18-.31-.22a.17.17,0,0,0-.27,0,1,1,0,0,0-.18.5h-.34c0-.32,0-.71,0-1.17s0-1.07,0-1.82h.34a8.71,8.71,0,0,0,.3,1.46,2,2,0,0,0,.61,1,1.74,1.74,0,0,0,1.17.35,1.52,1.52,0,0,0,.61-.13,1.21,1.21,0,0,0,.51-.45,1.49,1.49,0,0,0,.21-.84,1.37,1.37,0,0,0-.48-1.08,11,11,0,0,0-1.21-.88c-.36-.23-.69-.46-1-.69a3.08,3.08,0,0,1-.76-.77,1.8,1.8,0,0,1-.29-1.05,1.86,1.86,0,0,1,.3-1.1,1.77,1.77,0,0,1,.82-.63A3,3,0,0,1,396.08,258.51Z"/></g></g></svg>